<svg xmlns="http://www.w3.org/2000/svg" width="250" height="60" viewBox="0 0 250 60" fill="none">
  <!-- P -->
  <path d="M0 0h15v60h-15V0zm15 0h25c15 0 25 10 25 25s-10 25-25 25H15V0z" fill="white"/>
  
  <!-- A -->
  <path d="M90 60L115 0h10l25 60h-15l-5-15h-30l-5 15h-15zM105 35h20l-10-30-10 30z" fill="white"/>
  <path d="M115 35L125 10l10 25h-20z" fill="#FF6B00"/>
  
  <!-- R -->
  <path d="M160 0h35c15 0 25 10 25 25 0 10-5 18-15 22l20 13v0h-20l-20-15h-5v15h-15V0zM175 15v20h20c7 0 10-5 10-10s-3-10-10-10h-20z" fill="white"/>
  
  <!-- A -->
  <path d="M235 60L260 0h10l25 60h-15l-5-15h-30l-5 15h-15zM250 35h20l-10-30-10 30z" fill="white"/>
  <path d="M260 35L270 10l10 25h-20z" fill="#FF6B00"/>
  
  <!-- S -->
  <path d="M320 15c0-10 10-15 25-15s25 5 25 15v5h-15v-3c0-5-5-7-10-7s-10 2-10 7 5 7 15 10c15 5 25 10 25 25s-10 25-25 25-25-5-25-15v-5h15v3c0 5 5 7 10 7s10-2 10-7-5-7-15-10c-15-5-25-10-25-25z" fill="white"/>
</svg>
