<?xml version="1.0" encoding="utf-8"?>
<!-- Generator: Adobe Illustrator 27.5.0, SVG Export Plug-In . SVG Version: 6.00 Build 0)  -->
<svg version="1.1" xmlns="http://www.w3.org/2000/svg" xmlns:xlink="http://www.w3.org/1999/xlink" x="0px" y="0px"
	 viewBox="0 0 200 200" style="enable-background:new 0 0 200 200;" xml:space="preserve">
<g id="Layer_1">
	
		<radialGradient id="SVGID_1_" cx="500.9287" cy="-39.1051" r="24.3595" gradientTransform="matrix(6.6166 0 0 5.9093 -3214.4448 331.0838)" gradientUnits="userSpaceOnUse">
		<stop  offset="0" style="stop-color:#FFFFFF"/>
		<stop  offset="0.5657" style="stop-color:#FFFFFF"/>
		<stop  offset="0.6297" style="stop-color:#FAFAFA"/>
		<stop  offset="0.703" style="stop-color:#ECEDED"/>
		<stop  offset="0.781" style="stop-color:#D5D6D7"/>
		<stop  offset="0.8622" style="stop-color:#B5B6B7"/>
		<stop  offset="0.9451" style="stop-color:#8C8D8F"/>
		<stop  offset="1" style="stop-color:#6D6E71"/>
	</radialGradient>
	<rect style="fill:url(#SVGID_1_);" width="200" height="200"/>
</g>
<g id="Isolation_Mode">
	
		<radialGradient id="SVGID_00000064321484695110313660000003737651546144568480_" cx="-793.087" cy="2027.8796" r="45.776" gradientTransform="matrix(-0.8262 0.0072 0.0071 0.8208 -603.9787 -1539.7026)" gradientUnits="userSpaceOnUse">
		<stop  offset="0.1829" style="stop-color:#000000"/>
		<stop  offset="0.2245" style="stop-color:#404042"/>
		<stop  offset="0.3326" style="stop-color:#747578"/>
		<stop  offset="0.4402" style="stop-color:#9B9D9F"/>
		<stop  offset="0.5449" style="stop-color:#BDBFC1"/>
		<stop  offset="0.6458" style="stop-color:#D8D9DB"/>
		<stop  offset="0.7421" style="stop-color:#ECECED"/>
		<stop  offset="0.8319" style="stop-color:#F8F8F9"/>
		<stop  offset="0.9086" style="stop-color:#FFFFFF"/>
	</radialGradient>
	<path style="fill:url(#SVGID_00000064321484695110313660000003737651546144568480_);" d="M28.039,119.397
		c0.181,20.836,17.176,37.58,37.959,37.398c20.78-0.178,37.48-17.216,37.299-38.052c-0.184-20.837-17.176-37.58-37.957-37.398
		C44.557,81.527,27.856,98.565,28.039,119.397z"/>
	
		<radialGradient id="SVGID_00000111161227745706111830000011247014899545448382_" cx="-852.7576" cy="2000.7773" r="61.3506" gradientTransform="matrix(-0.8262 0.0072 0.0071 0.8208 -603.9787 -1539.7026)" gradientUnits="userSpaceOnUse">
		<stop  offset="0.1086" style="stop-color:#000000"/>
		<stop  offset="0.1867" style="stop-color:#535355"/>
		<stop  offset="0.2939" style="stop-color:#7F8183"/>
		<stop  offset="0.402" style="stop-color:#A3A5A7"/>
		<stop  offset="0.5086" style="stop-color:#C2C4C6"/>
		<stop  offset="0.6136" style="stop-color:#DBDDDE"/>
		<stop  offset="0.7163" style="stop-color:#EDEEEF"/>
		<stop  offset="0.8158" style="stop-color:#F9F9F9"/>
		<stop  offset="0.9086" style="stop-color:#FFFFFF"/>
	</radialGradient>
	<path style="fill:url(#SVGID_00000111161227745706111830000011247014899545448382_);" d="M64.343,96.834
		c0.242,27.924,23.02,50.365,50.873,50.122c27.852-0.238,50.233-23.073,49.99-50.999c-0.248-27.925-23.021-50.364-50.871-50.122
		C86.48,46.078,64.099,68.914,64.343,96.834z"/>
	<g>
		<g>
			<path d="M66.905,87.541L66.905,87.541C66.904,87.541,66.904,87.541,66.905,87.541c1.542-0.497,3.099-0.817,4.649-0.98l1.28-3.658
				l1.101-0.025l1.103,0.025l1.262,3.668c1.589,0.173,3.145,0.51,4.643,1.005l-0.002-0.004l2.662-2.825l1.015,0.426l0.996,0.473
				l-0.337,3.865l-0.005,0.002c1.368,0.794,2.657,1.73,3.84,2.799l3.577-1.501l0.756,0.806l0.717,0.836l-1.88,3.393
				c0.916,1.268,1.711,2.646,2.361,4.12l0,0l3.882,0.084l0.362,1.041l0.315,1.057l-3.102,2.337l0,0
				c0.333,1.577,0.492,3.158,0.489,4.724l3.507,1.654l-0.093,1.098l-0.142,1.097l-3.781,0.869c-0.336,1.559-0.834,3.074-1.481,4.516
				l0.002-0.001l2.534,2.94l-0.532,0.966l-0.574,0.941l-3.812-0.744l0,0c-0.928,1.277-1.994,2.46-3.183,3.526l1.118,3.714
				l-0.883,0.666l-0.904,0.627l-3.177-2.225c-1.353,0.774-2.804,1.423-4.346,1.92c-0.001,0-0.001,0-0.001,0h0.001l-0.489,3.846
				l-1.073,0.254l-1.084,0.203l-1.997-3.324c-1.6,0.163-3.191,0.158-4.752-0.011l-2.011,3.314l-1.085-0.208l-1.072-0.255
				l-0.473-3.85l0.004-0.002c-1.511-0.498-2.966-1.149-4.34-1.946l0.004,0.006l-3.19,2.213l-0.905-0.631l-0.877-0.67l1.135-3.713
				c-1.167-1.054-2.232-2.236-3.17-3.536l-3.812,0.723l-0.569-0.943l-0.527-0.967l2.546-2.929l0,0
				c-0.317-0.716-0.601-1.461-0.846-2.223c-0.246-0.762-0.449-1.528-0.61-2.296l0,0l-3.778-0.891l-0.137-1.093l-0.09-1.102
				l3.517-1.639c0.002-1.601,0.176-3.183,0.508-4.721l-3.086-2.349l0.318-1.056l0.366-1.04l3.881-0.068v0.004
				c0.65-1.446,1.447-2.828,2.386-4.111l-0.001,0l-1.868-3.4l0.72-0.837l0.759-0.801l3.57,1.519c1.168-1.052,2.456-1.987,3.85-2.787
				l-0.321-3.866l0.998-0.47l1.019-0.422L66.905,87.541z"/>
			<path style="fill:#FFFFFF;" d="M75.061,82.872l1.262,3.67c1.573,0.173,3.123,0.508,4.607,0.997l2.65-2.813l0.015-0.016
				l1.037,0.435l1.016,0.483l-0.337,3.871c1.365,0.794,2.646,1.729,3.809,2.776l3.559-1.492l0.02-0.009l0.771,0.823L94.2,92.45
				l-1.881,3.395c0.919,1.274,1.708,2.65,2.345,4.091l3.862,0.084h0.021l0.369,1.063l0.321,1.079l-3.103,2.337
				c0.325,1.54,0.488,3.118,0.486,4.691l3.508,1.654l-0.094,1.121l-0.145,1.118l-3.783,0.87c-0.333,1.541-0.828,3.049-1.47,4.481
				l2.537,2.942l-0.543,0.987l-0.586,0.96l-3.814-0.744c-0.925,1.271-1.989,2.449-3.161,3.501l1.119,3.716l-0.901,0.68l-0.921,0.64
				l-3.179-2.226c-1.366,0.78-2.817,1.422-4.316,1.906l-0.489,3.848l-1.096,0.259l-1.105,0.208l-1.998-3.326
				c-0.77,0.078-1.548,0.117-2.316,0.117c-0.802,0-1.61-0.043-2.402-0.128l-2.001,3.296l-0.011,0.019l-1.108-0.212l-1.093-0.26
				l-0.474-3.855c-1.498-0.496-2.944-1.145-4.299-1.928l-3.193,2.216l-0.924-0.645l-0.894-0.683l1.135-3.715
				c-1.168-1.056-2.227-2.237-3.147-3.512l-3.792,0.719l-0.021,0.005l-0.581-0.963l-0.538-0.986l2.548-2.93
				c-0.314-0.712-0.597-1.454-0.839-2.208c-0.242-0.75-0.446-1.517-0.607-2.279l-3.758-0.887l-0.021-0.005l-0.14-1.115l-0.092-1.123
				l3.519-1.641c0.004-1.57,0.173-3.146,0.504-4.688l-3.087-2.35l0.324-1.078l0.373-1.06l3.885-0.069
				c0.654-1.451,1.45-2.823,2.367-4.077l-1.869-3.403l0.735-0.854l0.774-0.816l3.572,1.52c1.167-1.05,2.453-1.98,3.823-2.767
				l-0.319-3.847l-0.002-0.021l1.019-0.48l1.039-0.43l2.646,2.841c1.492-0.479,3.045-0.807,4.616-0.973l1.281-3.661l1.123-0.025h0
				L75.061,82.872z M71.577,86.59l-0.02,0.002c-1.563,0.164-3.109,0.488-4.597,0.964l0.001,0.001l-0.049,0.014l-0.009-0.029
				l-0.021,0.021l-2.631-2.824l-0.997,0.413l-0.979,0.461l0.321,3.864l-0.018,0.01c-1.378,0.79-2.672,1.726-3.844,2.782
				l-0.015,0.014l-3.569-1.518l-0.743,0.783l-0.706,0.821l1.845,3.357l0.071-0.025l-0.059,0.082
				c-0.924,1.262-1.726,2.643-2.383,4.105l-0.064,0.14l0.004-0.125l-3.826,0.068l-0.359,1.018l-0.312,1.035l3.085,2.348l-0.004,0.02
				c-0.334,1.549-0.504,3.135-0.507,4.714v0.02l-3.515,1.639l0.088,1.078l0.134,1.071l3.757,0.886l0.02,0.005l0.004,0.02
				c0.161,0.766,0.366,1.537,0.609,2.293c0.245,0.758,0.529,1.504,0.846,2.219l0.008,0.019l-2.545,2.927l0.517,0.947l0.557,0.924
				l3.79-0.719l0.02-0.004l0.012,0.017c0.925,1.282,1.99,2.471,3.165,3.531l0.015,0.014l-1.134,3.711l0.858,0.656l0.887,0.618
				l3.148-2.185l-0.047-0.082l0.101,0.059c1.365,0.792,2.823,1.446,4.334,1.944l0.086,0.031l-0.066,0.021l0.467,3.803l1.05,0.25
				l1.063,0.203l2.011-3.312l0.02,0.002c0.796,0.086,1.609,0.13,2.415,0.13c0.772,0,1.556-0.04,2.33-0.119l0.02-0.002l1.996,3.322
				l1.061-0.199l1.052-0.248l0.486-3.824l0.03,0.004l-0.009-0.03c1.506-0.485,2.967-1.13,4.34-1.917l0.018-0.01l3.176,2.224
				l0.884-0.614l0.866-0.652l-1.118-3.713l0.015-0.013c1.18-1.057,2.249-2.241,3.179-3.521l0.012-0.017l3.81,0.743l0.562-0.922
				l0.521-0.946l-2.506-2.907l-0.051,0.018l0.03-0.066c0.647-1.44,1.145-2.958,1.48-4.51l0.004-0.02l3.779-0.869l0.139-1.073
				l0.091-1.075l-3.505-1.654v-0.02c0.003-1.582-0.161-3.169-0.489-4.717l-0.004-0.02l3.101-2.336l-0.309-1.035l-0.354-1.021
				l-3.88-0.083l-0.008-0.019c-0.639-1.449-1.433-2.834-2.358-4.114l-0.012-0.016l1.88-3.391l-0.703-0.818l-0.741-0.79l-3.575,1.499
				l-0.015-0.013c-1.169-1.056-2.46-1.997-3.835-2.794l-0.056-0.037l0.047-0.016l0.333-3.823l-0.975-0.463l-0.995-0.418
				l-2.634,2.796l0.014,0.045l-0.058-0.02c-1.494-0.493-3.053-0.831-4.637-1.004l-0.02-0.002l-1.261-3.666l-1.081-0.024
				l-1.078,0.023L71.577,86.59z"/>
		</g>
		<g>
			<path d="M89.269,104.191C86.56,95.788,77.55,91.171,69.145,93.881c-8.404,2.709-13.02,11.719-10.311,20.123
				c2.71,8.405,11.719,13.021,20.123,10.312C87.362,121.605,91.979,112.596,89.269,104.191z"/>
			<path style="fill:#FFFFFF;" d="M83.394,96.083c2.802,2.008,4.844,4.809,5.905,8.099c1.313,4.073,0.962,8.414-0.99,12.222
				c-1.951,3.809-5.269,6.629-9.341,7.942c-1.6,0.516-3.255,0.777-4.919,0.777c-3.362,0-6.592-1.041-9.339-3.01
				c-2.802-2.008-4.844-4.809-5.905-8.1c-1.313-4.072-0.961-8.412,0.99-12.221c1.951-3.809,5.269-6.629,9.342-7.942
				c1.599-0.516,3.254-0.777,4.919-0.777C77.417,93.074,80.646,94.114,83.394,96.083z M78.948,124.286
				c8.374-2.7,12.991-11.71,10.291-20.085c-2.134-6.618-8.236-11.065-15.185-11.065c-1.658,0-3.307,0.26-4.9,0.774
				c-8.374,2.7-12.99,11.71-10.29,20.084c2.134,6.619,8.236,11.065,15.184,11.065C75.706,125.06,77.354,124.799,78.948,124.286z"/>
		</g>
		<g>
			<path d="M89.269,104.191C86.56,95.788,77.55,91.171,69.145,93.881c-8.404,2.709-13.02,11.719-10.311,20.123
				c2.71,8.405,11.719,13.021,20.123,10.312C87.362,121.605,91.979,112.596,89.269,104.191z"/>
			<path style="fill:#FFFFFF;" d="M84.105,95.091c3.016,2.161,5.214,5.175,6.356,8.717c1.413,4.383,1.035,9.054-1.065,13.152
				c-2.1,4.099-5.671,7.134-10.054,8.548c-1.721,0.555-3.502,0.836-5.294,0.836c-3.619,0-7.094-1.12-10.05-3.238
				c-3.017-2.161-5.214-5.176-6.356-8.717c-1.413-4.383-1.035-9.055,1.065-13.152c2.1-4.099,5.67-7.134,10.053-8.547
				c1.721-0.555,3.502-0.837,5.294-0.837C77.674,91.853,81.149,92.973,84.105,95.091z M78.573,123.124
				c7.734-2.493,11.997-10.814,9.504-18.548c-1.971-6.112-7.605-10.219-14.022-10.219c-1.531,0-3.053,0.24-4.525,0.715
				c-7.733,2.494-11.997,10.814-9.504,18.548c1.971,6.112,7.606,10.219,14.022,10.219C75.579,123.839,77.102,123.599,78.573,123.124
				z"/>
		</g>
		<g>
			
				<radialGradient id="SVGID_00000069358160013074459980000007771420208789564551_" cx="74.0514" cy="109.0982" r="12.8611" gradientUnits="userSpaceOnUse">
				<stop  offset="0.72" style="stop-color:#FFFFFF"/>
				<stop  offset="0.7525" style="stop-color:#F9F9F9"/>
				<stop  offset="0.7873" style="stop-color:#EDEEEF"/>
				<stop  offset="0.8232" style="stop-color:#DBDDDE"/>
				<stop  offset="0.86" style="stop-color:#C2C4C6"/>
				<stop  offset="0.8973" style="stop-color:#A3A5A7"/>
				<stop  offset="0.9351" style="stop-color:#7F8183"/>
				<stop  offset="0.9726" style="stop-color:#535355"/>
				<stop  offset="1" style="stop-color:#000000"/>
			</radialGradient>
			<path style="fill:url(#SVGID_00000069358160013074459980000007771420208789564551_);" d="M74.055,96.235
				c-1.335,0-2.663,0.21-3.949,0.625c-6.748,2.176-10.468,9.436-8.292,16.184c0.852,2.642,2.49,4.889,4.737,6.499
				c2.175,1.559,4.838,2.418,7.497,2.418c1.335,0,2.664-0.211,3.949-0.625c6.748-2.176,10.468-9.436,8.292-16.184
				c-0.852-2.642-2.49-4.889-4.738-6.499C79.377,97.094,76.714,96.235,74.055,96.235z"/>
			<path style="fill:#FFFFFF;" d="M81.88,98.195c2.346,1.681,4.056,4.027,4.945,6.784c1.098,3.407,0.802,7.042-0.834,10.236
				c-1.637,3.194-4.415,5.558-7.821,6.656c-1.342,0.433-2.729,0.652-4.122,0.652c-2.776,0-5.555-0.896-7.825-2.523
				c-2.347-1.681-4.057-4.027-4.945-6.784c-2.271-7.044,1.612-14.622,8.655-16.893c1.342-0.433,2.729-0.652,4.122-0.652
				C76.831,95.672,79.61,96.568,81.88,98.195z M77.824,120.8c3.12-1.006,5.665-3.172,7.164-6.098
				c1.499-2.927,1.771-6.257,0.765-9.377c-0.814-2.525-2.38-4.675-4.529-6.214c-2.08-1.491-4.626-2.313-7.169-2.313
				c-1.276,0-2.546,0.201-3.776,0.598c-6.452,2.08-10.009,9.021-7.929,15.475c0.814,2.525,2.381,4.674,4.529,6.214
				c2.081,1.491,4.627,2.313,7.169,2.313C75.324,121.397,76.595,121.196,77.824,120.8z"/>
		</g>
	</g>
	<g>
		<g>
			<path d="M97.101,92.713l0.012,0.01C97.112,92.724,97.112,92.724,97.101,92.713c-0.742-1.698-1.302-3.434-1.671-5.173
				l-4.334-1.029l-0.156-1.25l-0.101-1.263l4.039-1.871c-0.004-1.837,0.201-3.654,0.578-5.428l-0.002,0.012l-3.539-2.699l0.366-1.21
				l0.424-1.195l4.447-0.071l-0.008-0.003c0.746-1.654,1.669-3.235,2.735-4.711l-2.137-3.905l0.841-0.952l0.862-0.923l4.087,1.745
				c1.332-1.198,2.809-2.271,4.414-3.188l0,0l-0.369-4.436l1.144-0.54l1.164-0.491l3.046,3.264l0,0
				c1.757-0.567,3.533-0.948,5.322-1.131l1.47-4.189l1.261-0.035l1.267,0.042l1.442,4.203c1.814,0.198,3.604,0.578,5.326,1.151l0,0
				l3.047-3.243l1.166,0.491l1.147,0.537l-0.399,4.436l-0.002-0.005c1.572,0.912,3.045,1.986,4.406,3.208l4.102-1.705l0.875,0.917
				l0.81,0.956l-2.154,3.893c1.053,1.448,1.966,3.015,2.706,4.716c0,0,0,0,0.009,0.011l0,0l4.45,0.097l0.408,1.194l0.366,1.205
				l-3.552,2.677c0.385,1.804,0.562,3.628,0.555,5.42l4.033,1.903l-0.114,1.259l-0.165,1.253l-4.335,0.997l-0.01-0.013
				c-0.376,1.794-0.95,3.533-1.691,5.196l0.011-0.003l2.904,3.37l-0.617,1.105l-0.652,1.078l-4.374-0.853
				c-1.063,1.463-2.276,2.831-3.655,4.053l1.291,4.26l-1.017,0.75l-1.032,0.729l-3.646-2.554l0,0
				c-0.785,0.438-1.6,0.854-2.435,1.224c-0.843,0.373-1.689,0.696-2.55,0.979l0,0l-0.56,4.412l-1.232,0.281l-1.241,0.237
				l-2.29-3.812c-1.829,0.185-3.651,0.182-5.446-0.015l-2.306,3.798l-1.243-0.235l-1.234-0.294l-0.535-4.41l-0.002-0.006
				c-1.733-0.57-3.391-1.31-4.969-2.232l-0.002,0.012l-3.652,2.529l-1.044-0.714l-0.999-0.772l1.298-4.259
				c-1.333-1.203-2.556-2.56-3.635-4.059l-4.365,0.839l-0.664-1.089l-0.599-1.111L97.101,92.713z"/>
			<path style="fill:#FFFFFF;" d="M122.298,52.018l1.442,4.205c1.819,0.201,3.588,0.583,5.26,1.137l3.051-3.246l1.209,0.51
				l1.188,0.556l-0.399,4.436c1.537,0.896,3,1.96,4.35,3.166l4.063-1.689l0.041-0.017l0.909,0.952l0.838,0.989l-2.156,3.896
				c1.068,1.475,1.969,3.045,2.677,4.668l4.459,0.097l0.423,1.239l0.38,1.248l-3.555,2.679c0.367,1.739,0.552,3.54,0.547,5.353
				l4.037,1.905l-0.119,1.307l-0.17,1.297l-4.353,1.001c-0.366,1.725-0.925,3.442-1.662,5.104l2.913,3.38l-0.641,1.147l-0.675,1.116
				l-4.378-0.854c-1.09,1.495-2.304,2.841-3.61,4.003l1.293,4.264l-1.055,0.777l-1.068,0.756l-3.651-2.558
				c-0.815,0.455-1.624,0.861-2.404,1.208c-0.813,0.359-1.66,0.686-2.518,0.969l-0.561,4.416l-1.277,0.292l-1.286,0.245
				l-2.292-3.814c-1.806,0.18-3.62,0.175-5.379-0.014l-2.283,3.762l-0.024,0.039l-1.29-0.244l-1.278-0.305l-0.536-4.42
				c-1.712-0.565-3.36-1.306-4.9-2.199l-3.665,2.537l-1.083-0.74l-1.035-0.801l1.3-4.262c-1.332-1.205-2.539-2.553-3.59-4.008
				l-4.368,0.84l-0.689-1.131l-0.62-1.15l2.919-3.361c-0.727-1.672-1.282-3.39-1.65-5.108l-4.338-1.031l-0.162-1.297l-0.104-1.308
				l4.042-1.872c0-1.754,0.19-3.553,0.568-5.35l-3.505-2.673l-0.036-0.027l0.379-1.256l0.439-1.238l4.442-0.071
				c0.73-1.614,1.64-3.18,2.702-4.654l-2.14-3.91l0.873-0.987l0.894-0.956l4.091,1.747c1.333-1.194,2.799-2.253,4.358-3.148
				l-0.365-4.395l-0.004-0.044l1.186-0.561l1.206-0.509l3.049,3.267c1.746-0.561,3.514-0.936,5.255-1.116l1.472-4.193l1.305-0.036
				h0.002L122.298,52.018z M118.301,56.324l-0.041,0.004c-1.758,0.179-3.544,0.559-5.309,1.128l-0.039,0.013l-3.043-3.26
				l-1.12,0.472l-1.103,0.521l0.368,4.433l-0.036,0.021c-1.577,0.901-3.059,1.971-4.402,3.18l-0.03,0.028l-4.084-1.744l-0.83,0.888
				l-0.812,0.918l2.135,3.901l-0.024,0.033c-1.061,1.469-1.969,3.028-2.7,4.637l0.254,0.098l-4.734,0.076l-0.408,1.15l-0.353,1.167
				l3.503,2.672l-0.031,0.042l0.056,0.019l-0.017,0.107l-0.005-0.004c-0.371,1.782-0.557,3.566-0.554,5.304l0.001,0.041
				l-4.036,1.869l0.096,1.215l0.151,1.206l4.29,1.02l0.04,0.009l0.008,0.04c0.368,1.731,0.926,3.463,1.661,5.148l0.002,0
				l-0.001,0.001c0.002,0.004,0.003,0.008,0.005,0.012l-0.025,0.011l-0.021,0.025l0.037,0.032l-2.887,3.324l0.576,1.068l0.641,1.051
				l4.361-0.838l0.024,0.033c1.059,1.471,2.279,2.834,3.626,4.048l0.03,0.027l-1.298,4.256l0.961,0.743l1.008,0.688l3.592-2.488
				l0.012-0.078l0.083,0.048c1.556,0.908,3.224,1.657,4.956,2.227l0.033,0.016l0.01,0.03l0.533,4.379l1.188,0.283l1.199,0.228
				l2.304-3.795l0.041,0.005c1.774,0.193,3.609,0.198,5.433,0.015l0.041-0.005l2.288,3.808l1.194-0.228l1.188-0.271l0.56-4.408
				l0.038-0.013c0.866-0.284,1.722-0.613,2.544-0.978c0.788-0.35,1.605-0.76,2.43-1.221l0.035-0.02l3.643,2.551l0.994-0.703
				l0.98-0.723l-1.29-4.255l0.031-0.028c1.32-1.169,2.548-2.529,3.646-4.042l0.024-0.033l4.37,0.853l0.627-1.037l0.596-1.066
				l-2.848-3.304l-0.107,0.034l0.059-0.132c0.753-1.687,1.32-3.431,1.688-5.183l0.029-0.141l0.071,0.095l4.249-0.978l0.159-1.205
				l0.11-1.214l-4.029-1.901v-0.041c0.008-1.832-0.179-3.651-0.553-5.407l-0.009-0.041l3.548-2.674l-0.352-1.16l-0.394-1.152
				l-4.436-0.096l-0.019-0.023l-0.018-0.026c-0.712-1.636-1.62-3.219-2.698-4.703l-0.024-0.033l2.152-3.89l-0.777-0.918
				l-0.846-0.885l-4.059,1.688l-0.038,0.016l-0.03-0.027c-1.335-1.198-2.784-2.256-4.307-3.148l-0.021,0.212l-0.147-0.459
				l0.059,0.034l0.386-4.286l-1.104-0.516l-1.124-0.474l-3.045,3.241l-0.04-0.014c-1.687-0.562-3.474-0.948-5.313-1.148l-0.04-0.004
				l-1.441-4.199l-1.22-0.041l-1.215,0.034L118.301,56.324z"/>
		</g>
		<g>
			<path d="M137.031,76.98c-2.834-8.791-12.259-13.62-21.051-10.786c-8.791,2.835-13.619,12.259-10.785,21.05
				s12.259,13.621,21.05,10.786C135.037,95.196,139.865,85.771,137.031,76.98z"/>
			<path style="fill:#FFFFFF;" d="M131.242,68c3.039,2.177,5.253,5.214,6.403,8.782c1.424,4.416,1.043,9.122-1.073,13.251
				c-2.115,4.129-5.713,7.188-10.129,8.611c-1.734,0.559-3.528,0.842-5.334,0.842c-3.646,0-7.146-1.128-10.125-3.262
				c-3.039-2.177-5.253-5.214-6.403-8.783c-2.939-9.116,2.086-18.923,11.202-21.862c1.733-0.559,3.528-0.843,5.334-0.843
				C124.763,64.737,128.264,65.865,131.242,68z M126.047,97.416c4.088-1.318,7.418-4.148,9.377-7.971
				c1.958-3.823,2.311-8.179,0.993-12.267c-2.15-6.669-8.299-11.15-15.3-11.15c-1.671,0-3.332,0.263-4.938,0.78
				c-8.438,2.721-13.091,11.8-10.37,20.238c2.15,6.669,8.299,11.15,15.3,11.15C122.78,98.196,124.441,97.934,126.047,97.416z"/>
		</g>
		<g>
			
				<radialGradient id="SVGID_00000139974039943427206900000006949970764512914832_" cx="121.1125" cy="82.1125" r="13.1487" gradientUnits="userSpaceOnUse">
				<stop  offset="0.72" style="stop-color:#FFFFFF"/>
				<stop  offset="0.7525" style="stop-color:#F9F9F9"/>
				<stop  offset="0.7873" style="stop-color:#EDEEEF"/>
				<stop  offset="0.8232" style="stop-color:#DBDDDE"/>
				<stop  offset="0.86" style="stop-color:#C2C4C6"/>
				<stop  offset="0.8973" style="stop-color:#A3A5A7"/>
				<stop  offset="0.9351" style="stop-color:#7F8183"/>
				<stop  offset="0.9726" style="stop-color:#535355"/>
				<stop  offset="1" style="stop-color:#000000"/>
			</radialGradient>
			<path style="fill:url(#SVGID_00000139974039943427206900000006949970764512914832_);" d="M133.623,78.079
				c-2.227-6.91-9.635-10.706-16.545-8.478c-6.909,2.228-10.704,9.635-8.477,16.545c2.228,6.909,9.635,10.705,16.545,8.477
				C132.056,92.396,135.852,84.988,133.623,78.079z"/>
			<path d="M134.106,77.923c1.119,3.471,0.819,7.17-0.843,10.416c-1.663,3.246-4.49,5.649-7.962,6.768
				c-1.362,0.439-2.774,0.662-4.192,0.662c-5.944,0-11.165-3.804-12.991-9.467c-2.31-7.165,1.64-14.873,8.805-17.184
				c1.363-0.439,2.773-0.662,4.192-0.662C127.061,68.456,132.281,72.261,134.106,77.923z M124.99,94.141
				c3.213-1.036,5.83-3.261,7.37-6.265c1.539-3.004,1.816-6.428,0.78-9.641c-1.689-5.241-6.522-8.764-12.025-8.764
				c-1.313,0-2.619,0.206-3.881,0.613c-6.632,2.139-10.288,9.274-8.15,15.906c1.69,5.242,6.523,8.764,12.025,8.764
				C122.423,94.754,123.729,94.548,124.99,94.141z"/>
		</g>
	</g>
</g>
</svg>
